<svg xmlns="http://www.w3.org/2000/svg" xmlns:xlink="http://www.w3.org/1999/xlink" width="500" zoomAndPan="magnify" viewBox="0 0 375 374.999991" height="500" preserveAspectRatio="xMidYMid meet" version="1.0"><defs><clipPath id="6adcb65e9a"><path d="M 0 5.625 L 375 5.625 L 375 369.375 L 0 369.375 Z M 0 5.625 " clip-rule="nonzero"/></clipPath></defs><g clip-path="url(#6adcb65e9a)"><path fill="#fd5e3d" d="M 204.464844 17.988281 C 205.976562 17.988281 207.546875 18.390625 209.015625 19.199219 C 215.472656 22.765625 216.824219 34.878906 216.308594 41.496094 C 213.777344 74.988281 193.542969 98.652344 189.195312 113.636719 C 186.285156 123.742188 184.214844 140.753906 197.691406 144.285156 C 199.132812 144.664062 200.597656 144.835938 202.066406 144.835938 C 209.789062 144.835938 217.660156 140.054688 223.410156 135.035156 C 232.628906 126.953125 237.320312 115.035156 238.71875 102.699219 C 238.910156 100.996094 239.34375 99.566406 240.035156 98.394531 C 245.121094 89.644531 252.160156 99.152344 252.5 105.253906 C 253.578125 125.058594 235.410156 137.863281 219.859375 150.664062 C 208.953125 159.644531 204.710938 170.839844 207.152344 184.269531 C 209 194.390625 210.011719 200.042969 210.15625 201.230469 C 212.535156 218.917969 203.796875 231.574219 193.980469 249.582031 C 188.40625 259.816406 186.65625 270.449219 188.746094 281.453125 C 189.523438 285.578125 192.179688 287.128906 195.726562 287.128906 C 204.894531 287.128906 220.015625 276.75 224.035156 273.644531 C 244.5 257.855469 253.449219 233.34375 249.382812 207.769531 C 248.757812 203.816406 247.40625 197.554688 245.351562 188.976562 C 244.597656 185.8125 245.144531 182.566406 247.007812 179.273438 C 247.578125 178.265625 248.59375 177.671875 249.636719 177.671875 C 251.160156 177.671875 252.359375 179.058594 253.382812 180.382812 C 253.6875 180.78125 253.898438 181.25 253.976562 181.761719 C 255.183594 188.796875 256.742188 199.816406 265.898438 200.589844 C 269.574219 200.90625 272.988281 200.140625 275.921875 197.875 C 294.105469 183.738281 304.785156 158.839844 307.101562 136.289062 C 307.949219 128.046875 308.191406 118.648438 307.855469 108.097656 C 307.695312 102.988281 309.460938 95.421875 315.277344 95.050781 C 315.589844 95.03125 315.894531 95.023438 316.1875 95.023438 C 330.121094 95.023438 324.070312 116.953125 322.136719 124.835938 C 312.980469 161.925781 309.300781 161.636719 310.441406 172.960938 C 311.441406 183.230469 322.042969 185.371094 330.664062 181.617188 C 350.179688 173.113281 350.710938 157.46875 358.371094 157.46875 C 360.269531 157.46875 361.945312 158.699219 362.453125 161.441406 C 364.269531 171.210938 352.496094 182.117188 344.847656 186.933594 C 330.664062 195.898438 318.664062 197.90625 297.332031 203.996094 C 277.527344 209.632812 264 225.808594 258.667969 245.179688 C 257.71875 248.652344 258.589844 251.816406 261.285156 254.660156 C 261.65625 255.058594 262.152344 255.316406 262.699219 255.414062 C 268.84375 256.410156 269.578125 254.253906 290.632812 247.574219 C 297.425781 245.425781 306.394531 244.210938 307.789062 251.15625 C 308.945312 256.941406 303.757812 258.546875 298.667969 259.125 C 288.355469 260.265625 265.445312 264.941406 263.648438 277.679688 C 261.929688 289.964844 274.1875 292.328125 283.324219 294.753906 C 285.945312 295.445312 288.289062 298.238281 287.199219 301.324219 C 285.375 306.46875 278.847656 306.179688 273.945312 304.167969 C 264.5 300.3125 254.941406 294.707031 246.558594 293.710938 C 225.125 291.128906 209.722656 300.804688 197.402344 318.222656 C 186.429688 333.738281 188.003906 347.984375 187.441406 353.015625 C 187.378906 353.546875 187.058594 354.027344 186.574219 354.285156 C 182.136719 356.75 167.050781 358.644531 151.960938 354.878906 C 150.496094 354.527344 149.628906 353 150.0625 351.554688 C 157.421875 326.769531 152.921875 299.574219 126.144531 289.324219 C 119.398438 286.734375 111.484375 286.265625 102.828125 286.265625 C 98.019531 286.265625 92.539062 286.417969 87.691406 286.417969 C 81.734375 286.417969 71.332031 284.175781 69.90625 277.390625 C 68.835938 272.296875 71.59375 270.757812 75.488281 270.757812 C 83.480469 270.757812 90.082031 275.566406 101.109375 275.566406 C 105.914062 275.566406 110.601562 274.535156 113.871094 271.6875 C 121.148438 265.324219 115.207031 254.160156 109.390625 247.945312 C 95.304688 232.84375 76.109375 223.800781 55.210938 221.183594 C 42.632812 219.609375 22.601562 218.148438 14.214844 208.125 C 10.070312 203.191406 13.378906 196.125 19.148438 194.917969 C 23.4375 194.019531 27.765625 197.5 44.027344 205.988281 C 48.136719 208.121094 55.070312 210.53125 61.234375 210.53125 C 67.074219 210.53125 72.21875 208.367188 73.601562 201.761719 C 74.117188 199.304688 73.570312 196.042969 71.964844 191.980469 C 69.921875 186.855469 67.964844 180.1875 66.050781 172.011719 C 60.605469 148.753906 45.507812 131.515625 23.453125 122.230469 C 19.273438 120.480469 15.113281 115.292969 18.839844 110.988281 C 23.09375 106.082031 29.699219 107.359375 35.113281 110.921875 C 36.464844 111.808594 42.808594 116.675781 54.164062 125.507812 C 61.820312 131.488281 73.289062 131.761719 77.777344 122.183594 C 83.898438 109.140625 81.101562 95.953125 77.183594 81.671875 C 76.140625 77.898438 75.464844 71.261719 80.300781 70.105469 C 80.996094 69.941406 81.648438 69.863281 82.261719 69.863281 C 89.273438 69.863281 91.199219 80.023438 91.832031 85.960938 C 93.136719 98.105469 92.445312 109.109375 89.746094 118.972656 C 85.554688 134.296875 83.207031 143.164062 82.675781 145.554688 C 77.519531 169.121094 82.082031 191.320312 96.378906 212.15625 C 102.011719 220.378906 107.535156 226.5 117.117188 223.207031 C 131.558594 218.273438 131.878906 195.433594 128.023438 183.738281 C 126.464844 179.015625 124.667969 174.324219 122.628906 169.652344 C 120.726562 165.273438 123.894531 160.550781 128.570312 160.550781 C 134.816406 160.550781 140.34375 170.117188 141.210938 174.777344 C 145.484375 197.542969 131.367188 218.332031 130.546875 233.183594 C 129.839844 246.820312 135.894531 256.859375 145.757812 265.695312 C 149.625 269.152344 159.195312 281.269531 165.421875 273.757812 C 168.191406 270.433594 167.046875 256.632812 173.515625 246.050781 C 179.957031 235.464844 184.148438 228.136719 186.078125 224.105469 C 207.089844 180.222656 170.800781 146.519531 149.984375 112.929688 C 140.425781 97.511719 136.054688 81.0625 136.890625 63.570312 C 137.113281 58.691406 139.976562 52.105469 144.757812 52.105469 C 146.199219 52.105469 147.8125 52.703125 149.582031 54.125 C 151.171875 55.390625 151.863281 57.09375 151.6875 59.199219 C 150.78125 69.613281 149.875 105.660156 167.488281 105.660156 C 168.917969 105.660156 170.46875 105.421875 172.152344 104.914062 C 174.382812 104.242188 176.859375 102.183594 179.589844 98.761719 C 195.234375 79.101562 203.039062 57.03125 196.96875 31.761719 C 196.261719 28.824219 196.359375 25.980469 197.257812 23.265625 C 198.410156 19.753906 201.304688 17.988281 204.464844 17.988281 M 204.464844 5.632812 C 189.828125 5.632812 181.375 19.753906 184.957031 34.652344 C 190.0625 55.894531 183.363281 74.171875 169.925781 91.0625 C 168.945312 92.292969 168.277344 92.941406 167.921875 93.253906 C 167.183594 92.277344 165.195312 88.890625 164.191406 79.910156 C 163.5 73.722656 163.480469 66.234375 163.996094 60.234375 C 165.042969 47.769531 154.113281 39.75 144.757812 39.75 C 132.917969 39.75 125.09375 51.167969 124.550781 62.996094 C 123.601562 82.933594 128.625 101.921875 139.480469 119.441406 C 160.964844 154.101562 192.382812 182.328125 174.933594 218.769531 C 173.734375 221.285156 170.683594 226.9375 162.960938 239.625 C 159.914062 244.621094 157.683594 250.875 156.207031 258.621094 C 150.589844 252.964844 142.21875 246.832031 142.882812 233.839844 C 143.585938 221.789062 158.300781 198.859375 153.355469 172.496094 C 151.390625 161.988281 141.214844 147.511719 127.613281 148.222656 C 114.425781 148.894531 106.015625 162.496094 111.304688 174.59375 C 113.1875 178.914062 114.867188 183.292969 116.292969 187.609375 C 118.875 195.445312 118.230469 211.246094 112.175781 211.75 C 110.484375 210.875 107.613281 206.6875 106.566406 205.164062 C 94.695312 187.867188 90.15625 169.191406 94.746094 148.203125 C 99.730469 125.886719 107.214844 113.53125 104.117188 84.644531 C 103.242188 76.464844 100.988281 67.777344 94.832031 62.308594 C 82.269531 51.144531 58.332031 59.792969 65.269531 84.945312 C 69.269531 99.511719 70.570312 108.460938 66.59375 116.9375 C 66.496094 117.144531 66.414062 117.269531 66.371094 117.332031 C 65.003906 117.652344 62.878906 116.636719 61.75 115.757812 C 45.632812 103.21875 43.082031 101.375 41.898438 100.597656 C 16.761719 84.0625 -6.066406 110.800781 10.882812 128.285156 C 13.09375 130.566406 15.78125 132.410156 18.65625 133.617188 C 37.320312 141.476562 49.550781 155.726562 54.023438 174.828125 C 57.710938 190.609375 60.328125 195.792969 61.058594 198.171875 C 57.5 198.125 52.691406 196.566406 49.730469 195.027344 C 47.878906 194.0625 43.554688 191.765625 33.449219 186.304688 C 28.214844 183.464844 22.460938 181.601562 16.617188 182.828125 C 1.734375 185.9375 -5.398438 203.957031 4.738281 216.050781 C 9.800781 222.101562 17.371094 226.414062 27.875 229.234375 C 47.050781 234.378906 59.636719 231.324219 79.4375 240.988281 C 87.726562 245.03125 94.730469 250.328125 100.363281 256.378906 C 102.433594 258.585938 103.898438 261.039062 104.5625 262.847656 C 103.804688 263.042969 102.671875 263.214844 101.113281 263.214844 C 92.726562 263.214844 85.664062 258.40625 75.488281 258.40625 C 62.828125 258.40625 55.296875 267.941406 57.816406 279.929688 C 60.519531 292.800781 74.667969 298.785156 87.769531 298.769531 C 100.699219 298.757812 113.65625 297.769531 121.722656 300.859375 C 130.800781 304.339844 136.460938 310.324219 139.128906 318.730469 C 141.726562 326.902344 141.402344 337.308594 138.21875 348.039062 C 135.785156 356.226562 140.695312 364.828125 148.992188 366.871094 C 159.546875 369.503906 170.402344 370.054688 181.449219 368.488281 C 190.664062 367.160156 198.695312 363.597656 199.722656 354.382812 C 200.386719 348.402344 198.796875 337.648438 207.488281 325.355469 C 217.292969 311.496094 228.492188 303.976562 245.089844 305.976562 L 245.101562 305.976562 C 250.945312 306.671875 260.308594 311.945312 269.277344 315.605469 C 290.988281 324.488281 305.289062 305.902344 297.84375 291.816406 C 295.5 287.382812 291.363281 284.101562 286.496094 282.8125 C 283.410156 281.992188 278.410156 280.839844 275.984375 279.449219 C 276.546875 278.785156 278.554688 276.886719 284.355469 274.847656 C 289.175781 273.152344 295.109375 271.953125 300.0625 271.402344 C 306.78125 270.636719 313.019531 268.472656 317.003906 263.011719 C 324.660156 252.515625 319 233.542969 299.859375 233.542969 C 292.433594 233.542969 285.636719 236.074219 273.5 240.371094 C 278.804688 228.675781 288.058594 219.480469 300.714844 215.878906 C 321.714844 209.886719 349.839844 204.835938 366.8125 183.804688 C 369.585938 180.371094 371.683594 176.863281 373.046875 173.375 C 374.933594 168.5625 375.457031 163.789062 374.601562 159.1875 C 371.820312 144.1875 354 140.105469 344.003906 152.207031 C 337.738281 159.910156 336.078125 165.78125 325.730469 170.292969 C 324.738281 170.722656 323.625 170.976562 322.671875 170.980469 C 322.1875 163.828125 324.792969 165.355469 334.382812 126.78125 C 337.367188 114.773438 340.21875 100.128906 332.515625 90.273438 C 328.683594 85.371094 322.882812 82.667969 316.1875 82.667969 C 315.628906 82.667969 315.058594 82.6875 314.488281 82.722656 C 301.976562 83.519531 295.09375 95.433594 295.507812 108.484375 C 296.167969 129.171875 295.171875 146.617188 286.339844 164.855469 C 281.636719 174.570312 275.417969 182.613281 268.351562 188.109375 C 268.300781 188.148438 268.238281 188.195312 268.125 188.230469 C 265.792969 182.675781 267.246094 178.101562 263.148438 172.8125 C 259.65625 168.308594 255.398438 165.316406 249.636719 165.316406 C 244.238281 165.316406 239.082031 168.230469 236.257812 173.179688 C 232.992188 178.949219 231.785156 185.464844 233.335938 191.847656 C 236.738281 206.382812 241.308594 221.675781 234.355469 239.992188 C 228.921875 254.316406 218.851562 263.578125 205.902344 270.703125 C 203.597656 271.972656 201.730469 272.847656 200.261719 273.449219 C 199.988281 263.269531 204.011719 256.914062 208.253906 249.304688 C 212.539062 241.625 216.585938 234.367188 219.332031 226.6875 C 231.460938 192.75 206.738281 177.46875 227.710938 160.203125 C 244.488281 146.390625 266.304688 130.828125 264.835938 104.5625 C 264.265625 94.355469 256.164062 82.5 244.726562 82.5 C 234.835938 82.5 227.574219 91.292969 226.441406 101.308594 C 225.40625 110.4375 222.125 119.726562 215.277344 125.734375 C 211.960938 128.628906 205.046875 133.441406 200.820312 132.335938 C 200.441406 132.238281 200.269531 132.140625 200.226562 132.113281 C 200.148438 132.003906 199.410156 130.871094 199.402344 127.5 C 199.371094 111.640625 209.894531 103.726562 220.570312 76.308594 C 226.34375 61.476562 231.1875 41.839844 227.261719 26.195312 C 226.390625 22.730469 225.15625 19.628906 223.59375 16.980469 C 221.363281 13.199219 218.46875 10.308594 214.988281 8.386719 C 211.71875 6.582031 208.082031 5.632812 204.464844 5.632812 Z M 204.464844 5.632812 " fill-opacity="1" fill-rule="nonzero"/></g></svg>